<?xml version="1.0" encoding="iso-8859-1"?>
<!-- Uploaded to: SVG Repo, www.svgrepo.com, Generator: SVG Repo Mixer Tools -->
<svg fill="#000000" height="800px" width="800px" version="1.1" id="Layer_1" xmlns="http://www.w3.org/2000/svg" xmlns:xlink="http://www.w3.org/1999/xlink" 
	 viewBox="0 0 392.387 392.387" xml:space="preserve">
<g>
	<g>
		<path d="M296.977,0H146.092c-8.404,0-16.291,3.232-22.238,9.18L72.913,60.186c-5.948,5.947-9.18,13.834-9.18,22.238v237.382
			c0,17.39,14.158,31.547,31.547,31.547h59.41v30.319c1.487,12.8,13.705,11.378,17.002,9.05l24.501-16.485l24.501,16.485
			c4.978,3.168,16.614,2.651,17.002-9.05v-30.319h59.41c17.39,0,31.547-14.158,31.547-31.547V31.483
			C328.525,14.158,314.367,0,296.977,0z M126.698,37.236V63.03h-25.794L126.698,37.236z M215.652,361.115l-13.511-9.051
			c-1.875-1.228-4.008-1.875-6.141-1.875c-2.069,0-4.267,0.646-6.077,1.875l-13.576,9.115v-50.166c12.8,3.232,26.505,3.232,39.305,0
			V361.115z M196.064,291.685c-24.178,0-44.865-14.933-53.527-36.008h17.455c6.012,0,10.925-4.849,10.925-10.925
			c0-6.077-4.849-10.925-10.925-10.925h-21.786v-0.065c0-6.788,1.228-13.317,3.426-19.329h44.218
			c6.012,0,10.925-4.849,10.925-10.925c0-6.012-4.849-10.925-10.925-10.925h-30.384c10.408-10.343,24.824-16.743,40.663-16.743
			c31.935,0,57.859,25.988,57.859,57.859C253.923,265.762,227.999,291.685,196.064,291.685z M307.062,319.806h-0.194h-0.129
			c0,5.301-4.331,9.632-9.632,9.632h-59.41v-27.927c22.885-13.964,38.271-39.176,38.271-67.814c0-43.96-35.749-79.644-79.644-79.644
			c-43.96,0-79.644,35.749-79.644,79.644c0,28.768,15.386,53.915,38.271,67.943v27.798h-59.41c-5.301,0-9.632-4.331-9.632-9.632
			V84.816h52.105c6.012,0,10.925-4.849,10.925-10.925v-52.17H297.43c5.301,0,9.632,4.331,9.632,9.632V319.806z"/>
	</g>
</g>
<g>
	<g>
		<path d="M276.42,111.968H115.709c-6.012,0-10.925,4.849-10.925,10.925c0,6.077,4.849,10.925,10.925,10.925H276.42
			c6.012,0,10.925-4.849,10.925-10.925C287.345,116.816,282.367,111.968,276.42,111.968z"/>
	</g>
</g>
<g>
	<g>
		<path d="M276.42,55.531h-94.642c-6.012,0-10.925,4.849-10.925,10.925c0,6.077,4.848,10.925,10.925,10.925h94.642
			c6.012,0,10.925-4.849,10.925-10.925C287.345,60.38,282.367,55.531,276.42,55.531z"/>
	</g>
</g>
</svg>