<?xml version="1.0" encoding="iso-8859-1"?>
<!-- Uploaded to: SVG Repo, www.svgrepo.com, Generator: SVG Repo Mixer Tools -->
<svg fill="#000000" height="800px" width="800px" version="1.1" id="Layer_1" xmlns="http://www.w3.org/2000/svg" xmlns:xlink="http://www.w3.org/1999/xlink" 
	 viewBox="0 0 392.533 392.533" xml:space="preserve">
<g>
	<g>
		<path d="M359.822,50.586H32.711C14.675,50.586,0,65.261,0,83.362v225.875c0,18.036,14.675,32.711,32.711,32.711h327.111
			c18.036,0,32.711-14.675,32.711-32.711V83.362C392.533,65.261,377.859,50.586,359.822,50.586z M357.818,72.436L196.267,239.354
			L34.715,72.436H357.818z M21.915,310.271c-0.065-0.388-0.129-81.325-0.129-81.325h21.786c6.012,0,10.925-4.849,10.925-10.925
			c0-6.012-4.848-10.925-10.925-10.925H21.786v-21.786h43.572c6.012,0,10.925-4.849,10.925-10.925
			c0-6.012-4.849-10.925-10.925-10.925H21.786V90.473l101.689,105.115L21.915,310.271z M42.408,320.097l96.259-108.865
			l49.713,51.394c2.069,2.069,4.848,3.297,7.822,3.297c2.909,0,5.818-1.228,7.822-3.297l49.713-51.329l96.259,108.8H42.408z
			 M370.618,310.335L268.994,195.523L370.747,90.408C370.747,90.408,370.683,309.947,370.618,310.335z"/>
	</g>
</g>
<g>
	<g>
		<path d="M236.412,134.174c-4.267-4.267-11.119-4.267-15.451,0l-8.792,8.792v-39.952c0-6.012-4.848-10.925-10.925-10.925
			s-10.925,4.849-10.925,10.925v40.016l-8.792-8.792c-4.267-4.267-11.119-4.267-15.451,0c-4.331,4.202-4.461,11.119-0.129,15.386
			l27.41,27.539c2.004,2.004,4.784,3.168,7.758,3.168c2.844,0,5.624-1.164,7.758-3.168l27.539-27.539
			C240.679,145.358,240.679,138.505,236.412,134.174z"/>
	</g>
</g>
</svg>