<?xml version="1.0" encoding="iso-8859-1"?>
<!-- Uploaded to: SVG Repo, www.svgrepo.com, Generator: SVG Repo Mixer Tools -->
<svg fill="#000000" height="800px" width="800px" version="1.1" id="Layer_1" xmlns="http://www.w3.org/2000/svg" xmlns:xlink="http://www.w3.org/1999/xlink" 
	 viewBox="0 0 392.436 392.436" xml:space="preserve">
<g>
	<g>
		<path d="M381.398,313.503l-266.02-266.02l21.204-21.204l64.194,64.194c4.267,4.267,10.99,4.396,15.451,0
			c4.267-4.267,4.267-11.119,0-15.451L144.21,3.2c-4.267-4.267-11.119-4.267-15.451,0L99.927,32.032c0,0-37.172-38.4-76.477-0.711
			c-20.945,20.945-20.945,54.949,0,75.83l282.117,282.117c2.004,2.004,4.784,3.168,7.758,3.168h60.444
			c6.012,0,10.925-4.849,10.925-10.925v-60.444C384.566,318.416,383.467,315.636,381.398,313.503z M112.21,165.139l10.731-10.731
			c4.267-4.267,4.267-11.119,0-15.451c-4.267-4.267-11.119-4.267-15.451,0L96.76,149.689l-15.127-15.127l26.053-26.052
			c4.267-4.267,4.267-11.119,0-15.451c-4.267-4.267-11.119-4.267-15.451,0l-26.053,26.052L38.901,91.83
			c-12.477-12.477-12.477-32.582-0.065-45.059c15.903-15.903,36.525-8.469,44.994,0l90.052,90.053l-44.994,44.994L112.21,165.139z
			 M362.844,370.78h-0.065h-44.994L144.275,197.204l44.994-44.994l173.576,173.576V370.78z"/>
	</g>
</g>
</svg>